{"title":"Perfect (1985) Jamie Lee Curtis + John Travolta (Opt.SWESUBS)","uid":4392088,"size":729940116,"categoryP":"video","categoryS":"movies","magnet":"?xt=urn:btih:7bb96f3da020d8de9e131845c28902c2b71dcac8&amp;dn=Perfect+%281985%29+Jamie+Lee+Curtis+%2B+John+Travolta+%28Opt.SWESUBS%29&amp;tr=udp%3A%2F%2Ftracker.openbittorrent.com%3A80&amp;tr=udp%3A%2F%2Fopen.demonii.com%3A1337&amp;tr=udp%3A%2F%2Ftracker.coppersurfer.tk%3A6969&amp;tr=udp%3A%2F%2Fexodus.desync.com%3A6969","seeders":2,"leechers":2,"uploader":"Kuthumi","files":-1,"time":1221234345,"description":"Optional Swedish subtitles in separate idx/sub files.\n &lt;a href=&quot;\nhttp://www.imdb.com/title/tt0089798/&quot; rel=&quot;nofollow&quot; target=&quot;_NEW&quot;&gt;\nhttp://www.imdb.com/title/tt0089798/&lt;/a&gt;\n\n\nWith Jamie Lee Curtis (then 27) and John Travolta (then 31).\n\nA female aerobics instructor meets a male reporter doing a story on health clubs, and gives us the most energetic hipwork I have ever seen in a feature film. The critics hated it, they obviously didn't see the point.\n\nI couldn't find a torrent for this film anywhere. It is no longer for sale in Europe, so I was lucky to find this rental DVD, which is now a collector's item.\n\nDVDrip, XviD 2-pass Widescreen 704x288, great stereo sound AC3.\n\nBurn tested, runs well in both my standalone DivX players.\n\n\nFormat/Info                      : Audio Video Interleave\nFile size                        : 695 MiB\nDuration                         : 1h 55mn\nOveral bit rate                  : 844 Kbps\n\nVideo\nFormat                           : MPEG-4 Visual\nFormat profile                   : Streaming Video@L1\nFormat settings, BVOP            : Yes\nFormat settings, QPel            : No\nFormat settings, GMC             : No warppoints\nFormat settings, Matrix          : Default\nMuxing mode                      : Packet Bitstream\nCodec ID                         : XVID\nCodec ID/Hint                    : XviD\nDuration                         : 1h 55mn\nBit rate                         : 707 Kbps\nWidth                            : 704 pixels\nHeight                           : 288 pixels\nDisplay aspect ratio             : 2.444\nFrame rate                       : 25.000 fps\nResolution                       : 8 bits\nColorimetry                      : 4:2:0\nScan type                        : Progressive\nBits/(Pixel*Frame)               : 0.139\nStream size                      : 582 MiB\nWriting library                  : XviD 1.2.0.dev47 (UTC 2006-11-01)\n\nAudio\nFormat                           : MPEG Audio\nFormat version                   : Version 1\nFormat profile                   : Layer 3\nCodec ID                         : 55\nCodec ID/Hint                    : MP3\nDuration                         : 1h 55mn\nBit rate mode                    : Constant\nBit rate                         : 128 Kbps\nMinimum bit rate                 : 128 Kbps\nChannel(s)                       : 2 channels\nSampling rate                    : 48.0 KHz\nResolution                       : 16 bits\nStream size                      : 105 MiB\nWriting library                  : LAME3.97 \nEncoding settings                : CBR\n\nSource: PAL rental 6 GiB, (note that PAL/NTSC will give no problems for avi files)\n","torrent":{"xt":"urn:btih:7bb96f3da020d8de9e131845c28902c2b71dcac8","amp;dn":"Perfect+%281985%29+Jamie+Lee+Curtis+%2B+John+Travolta+%28Opt.SWESUBS%29","amp;tr":["udp%3A%2F%2Ftracker.openbittorrent.com%3A80","udp%3A%2F%2Fopen.demonii.com%3A1337","udp%3A%2F%2Ftracker.coppersurfer.tk%3A6969","udp%3A%2F%2Fexodus.desync.com%3A6969"],"infoHash":"7bb96f3da020d8de9e131845c28902c2b71dcac8","infoHashBuffer":{"type":"Buffer","data":[123,185,111,61,160,32,216,222,158,19,24,69,194,137,2,194,183,29,202,200]},"announce":[],"urlList":[]}}